<svg width="24" height="24" viewBox="0 0 24 24" fill="none" xmlns="http://www.w3.org/2000/svg">
<g id="Icons / Filter" clip-path="url(#clip0_103_19264)">
<path id="Shape" fill-rule="evenodd" clip-rule="evenodd" d="M4 7.88889C4 8.37778 4.4 8.77778 4.88889 8.77778H19.1111C19.6 8.77778 20 8.37778 20 7.88889C20 7.4 19.6 7 19.1111 7H4.88889C4.4 7 4 7.4 4 7.88889ZM11.1111 17.6666H12.8889C13.3778 17.6666 13.7778 17.2666 13.7778 16.7778C13.7778 16.2889 13.3778 15.8889 12.8889 15.8889H11.1111C10.6222 15.8889 10.2222 16.2889 10.2222 16.7778C10.2222 17.2666 10.6222 17.6666 11.1111 17.6666ZM16.4444 13.2222H7.55548C7.06659 13.2222 6.66659 12.8222 6.66659 12.3334C6.66659 11.8445 7.06659 11.4445 7.55548 11.4445H16.4444C16.9333 11.4445 17.3333 11.8445 17.3333 12.3334C17.3333 12.8222 16.9333 13.2222 16.4444 13.2222Z" fill="#0064CC"/>
</g>
<defs>
<clipPath id="clip0_103_19264">
<rect width="24" height="24" fill="white"/>
</clipPath>
</defs>
</svg>
