<svg width="24" height="24" viewBox="0 0 24 24" fill="none" xmlns="http://www.w3.org/2000/svg">
<g id="Icons / help">
<rect width="24" height="24" rx="12" fill="#D1E4F9"/>
<path id="Vector" d="M12.0285 16.3749C12.2436 16.3749 12.4397 16.2894 12.6168 16.1186C12.794 15.9478 12.8826 15.7548 12.8826 15.5397C12.8826 15.2993 12.7972 15.0969 12.6263 14.9324C12.4555 14.7679 12.2562 14.6856 12.0285 14.6856C11.8007 14.6856 11.6014 14.7679 11.4306 14.9324C11.2598 15.0969 11.1744 15.293 11.1744 15.5208C11.1744 15.7485 11.2566 15.9478 11.4211 16.1186C11.5856 16.2894 11.7881 16.3749 12.0285 16.3749ZM12.0095 8.8968C12.3511 8.8968 12.6295 8.99486 12.8446 9.19099C13.0597 9.38711 13.1673 9.63701 13.1673 9.94069C13.1673 10.1558 13.104 10.3772 12.9775 10.605C12.8509 10.8327 12.6422 11.0542 12.3511 11.2693C12.0095 11.573 11.7469 11.8893 11.5635 12.2183C11.38 12.5473 11.2883 12.8383 11.2883 13.0913C11.2883 13.2558 11.3515 13.3887 11.4781 13.4899C11.6046 13.5911 11.7438 13.6418 11.8956 13.6418C12.0728 13.6418 12.2341 13.588 12.3796 13.4804C12.5251 13.3729 12.6232 13.2179 12.6738 13.0154C12.7117 12.813 12.7908 12.6232 12.911 12.446C13.0312 12.2689 13.1989 12.0917 13.414 11.9146C13.7556 11.6362 14.0119 11.3325 14.1827 11.0036C14.3535 10.6746 14.4389 10.314 14.4389 9.92171C14.4389 9.23843 14.2333 8.68169 13.8221 8.25148C13.4108 7.82127 12.8509 7.60617 12.1423 7.60617C11.6236 7.60617 11.1586 7.71056 10.7473 7.91934C10.3361 8.12811 9.97865 8.41598 9.67497 8.78292C9.56109 8.94741 9.51681 9.12456 9.54211 9.31435C9.56742 9.50415 9.64334 9.64334 9.76987 9.73191C9.93436 9.82048 10.1147 9.85528 10.3108 9.8363C10.5069 9.81732 10.6746 9.71293 10.8138 9.52313C10.9403 9.33333 11.1111 9.1815 11.3262 9.06762C11.5413 8.95374 11.7691 8.8968 12.0095 8.8968ZM11.9905 20C10.8644 20 9.81732 19.7975 8.84935 19.3926C7.88138 18.9877 7.03361 18.4278 6.30605 17.7129C5.57849 16.998 5.01226 16.1471 4.60735 15.1601C4.20245 14.1732 4 13.123 4 12.0095C4 10.8834 4.20245 9.83314 4.60735 8.85884C5.01226 7.88454 5.57849 7.03677 6.30605 6.31554C7.03361 5.59431 7.88454 5.02807 8.85884 4.61684C9.83314 4.20561 10.877 4 11.9905 4C13.0913 4 14.1289 4.20561 15.1032 4.61684C16.0775 5.02807 16.9284 5.59431 17.656 6.31554C18.3836 7.03677 18.9561 7.88454 19.3737 8.85884C19.7912 9.83314 20 10.8834 20 12.0095C20 13.123 19.7912 14.1732 19.3737 15.1601C18.9561 16.1471 18.3836 16.998 17.656 17.7129C16.9284 18.4278 16.0775 18.9877 15.1032 19.3926C14.1289 19.7975 13.0913 20 11.9905 20Z" fill="#0064CC"/>
</g>
</svg>
