<svg width="120" height="121" viewBox="0 0 120 121" fill="none" xmlns="http://www.w3.org/2000/svg">
<ellipse cx="60" cy="60.8459" rx="60" ry="60.1542" fill="url(#paint0_linear_869_30253)"/>
<path d="M45.9239 49.3264H32.4128C31.8606 49.3264 31.4128 49.7741 31.4128 50.3264V53.263C31.4128 53.8153 31.8606 54.263 32.4128 54.263H45.9239C46.4762 54.263 46.9239 53.8153 46.9239 53.263V50.3264C46.9239 49.7741 46.4762 49.3264 45.9239 49.3264Z" fill="#D4D9DE"/>
<path d="M42.2821 42.1268H36.2373V50.2073H42.2821V42.1268Z" fill="#D4D9DE"/>
<path d="M62.3523 120.499C61.9031 120.499 61.5109 120.322 61.4489 120.078L43.7606 50.8181C43.6919 50.5512 44.0422 50.306 44.5434 50.2701C45.0412 50.2333 45.5038 50.4201 45.5725 50.687L63.2608 119.946C63.3295 120.213 62.9792 120.459 62.4781 120.494C62.4362 120.497 62.3943 120.499 62.354 120.499H62.3523Z" fill="#D4D9DE"/>
<path d="M15.7826 119.872C15.9716 119.245 15.45 119.874 15.4074 119.872C14.899 119.836 15.5105 119.271 15.1657 119.271H14.8208L14.9642 118.085L32.4892 50.6868C32.5592 50.4199 33.0267 50.2341 33.5368 50.2699C34.0452 50.3058 34.4018 50.5519 34.3336 50.8179L16.327 120.078C16.2639 120.322 16.1654 119.872 15.7081 119.872H15.7826Z" fill="#D4D9DE"/>
<path d="M39.0468 120.499C38.5656 120.499 38.1755 120.281 38.1755 120.013V50.7522C38.1755 50.4834 38.5656 50.2655 39.0468 50.2655C39.528 50.2655 39.9181 50.4834 39.9181 50.7522V120.013C39.9181 120.281 39.528 120.499 39.0468 120.499Z" fill="#D4D9DE"/>
<path d="M39.2744 82.9713C39.1088 82.9713 38.9446 82.9195 38.8097 82.8173L27.843 74.4732C27.5332 74.2378 27.4905 73.8173 27.7469 73.5327C28.0033 73.2494 28.4626 73.2093 28.7724 73.4448L39.2891 81.4473L49.8539 73.9312C50.1704 73.7048 50.6284 73.7578 50.8754 74.0502C51.1211 74.3413 51.0637 74.7617 50.7459 74.9868L39.7191 82.8315C39.5882 82.9247 39.4306 82.9713 39.2731 82.9713H39.2744Z" fill="#D4D9DE"/>
<path d="M107.502 21.6486L109.848 20.7581C110.88 20.3661 111.401 19.2106 111.011 18.1771L106.424 6.01976C106.034 4.98633 104.88 4.46633 103.848 4.85832L101.502 5.7488C100.469 6.14079 99.9481 7.29633 100.338 8.32977L104.926 20.4871C105.316 21.5206 106.469 22.0406 107.502 21.6486Z" fill="#D4D9DE"/>
<path d="M78.8934 31.4732L105.29 21.4536L99.9712 7.35965L73.575 17.3793L78.8934 31.4732Z" fill="#BDC3C8"/>
<path d="M52.0707 40.2214L78.7754 31.019L73.7822 17.7834L47.5821 28.324L52.0707 40.2214Z" fill="#BDC3C8"/>
<path d="M24.2824 47.3481L25.2361 46.9863C25.4337 46.9114 25.5334 46.6903 25.4588 46.4926L23.4729 41.2269C23.3983 41.0292 23.1777 40.9297 22.9801 41.0046L22.0264 41.3664C21.8288 41.4414 21.7291 41.6625 21.8037 41.8602L23.7896 47.1258C23.8642 47.3236 24.0848 47.4231 24.2824 47.3481Z" fill="#F1F4F6"/>
<path d="M23.201 48.5121L23.9352 48.2335C24.1933 48.1355 24.3236 47.8466 24.2261 47.5882L21.8381 41.26C21.7407 41.0017 21.4523 40.8717 21.1942 40.9697L20.46 41.2484C20.2018 41.3464 20.0716 41.6352 20.1691 41.8936L22.557 48.2218C22.6545 48.4801 22.9428 48.6101 23.201 48.5121Z" fill="#BDC3C8"/>
<path d="M24.9986 47.5817C25.189 48.0865 25.7456 48.3493 26.2564 48.1755L51.1056 39.7196C51.6406 39.5376 51.9185 38.9487 51.7191 38.42L48.5446 30.0039C48.3456 29.4762 47.7497 29.2174 47.2282 29.4322L22.9595 39.4265C22.4597 39.6323 22.2139 40.1982 22.4047 40.704L24.9986 47.5817Z" fill="#BDC3C8"/>
<path d="M47.658 28.2907L47.5088 28.3474C47.3113 28.4224 47.2116 28.6434 47.2862 28.8411L51.5055 40.0226C51.5801 40.2203 51.8008 40.3198 51.9984 40.2448L52.1475 40.1882C52.3451 40.1132 52.4448 39.8921 52.3702 39.6944L48.1508 28.513C48.0762 28.3152 47.8556 28.2158 47.658 28.2907Z" fill="#F1F4F6"/>
<path d="M73.7349 17.2811L73.5853 17.3367C73.3873 17.4103 73.286 17.6307 73.3593 17.8289L78.3307 31.2865C78.4039 31.4847 78.6239 31.5857 78.822 31.5121L78.9715 31.4566C79.1696 31.383 79.2708 31.1626 79.1976 30.9644L74.2261 17.5068C74.1529 17.3085 73.933 17.2075 73.7349 17.2811Z" fill="#F1F4F6"/>
<path d="M60.6627 116.942L62.4349 116.485L63.2244 119.565C63.3341 119.993 63.0762 120.429 62.6484 120.539L62.4255 120.597C61.9977 120.707 61.5619 120.449 61.4522 120.021L60.6627 116.942Z" fill="#8E9EAE"/>
<path d="M15.4418 116.16L17.21 116.598L16.4482 119.685C16.3423 120.114 15.9089 120.375 15.48 120.269L15.2647 120.216C14.8359 120.109 14.5741 119.675 14.68 119.246L15.4418 116.16Z" fill="#8E9EAE"/>
<path d="M38.1757 117.002L39.8872 116.995L39.9008 120.192C39.9026 120.633 39.546 120.993 39.1042 120.995L38.9926 120.995C38.5508 120.997 38.1911 120.641 38.1892 120.199L38.1757 117.002Z" fill="#8E9EAE"/>
<path d="M11.1087 11.5383L17.2414 9.15897L11.2499 6.8343L8.81089 0L6.43296 6.66315L0 9.15897L6.57413 11.7095L8.81089 17.9771L11.1087 11.5383Z" fill="#CCCCCC"/>
<path d="M11.1087 11.5383L17.2414 9.15897L11.2499 6.8343L8.81089 0L6.43296 6.66315L0 9.15897L6.57413 11.7095L8.81089 17.9771L11.1087 11.5383Z" fill="#BDC3C8"/>
<defs>
<linearGradient id="paint0_linear_869_30253" x1="46.8965" y1="-203.971" x2="60.0674" y2="169.052" gradientUnits="userSpaceOnUse">
<stop stop-color="#ADB9BF"/>
<stop offset="1" stop-color="#F1F4F6" stop-opacity="0"/>
</linearGradient>
</defs>
</svg>
