<svg width="24" height="28" viewBox="0 0 24 28" fill="none" xmlns="http://www.w3.org/2000/svg">
<g filter="url(#filter0_d_105_5504)">
<path fill-rule="evenodd" clip-rule="evenodd" d="M14.3625 4.15407L18.8091 8.46798C18.8701 8.5247 18.9185 8.59291 18.9514 8.66842C18.9842 8.74393 19.0007 8.82515 19 8.90708V18.7675C19 19.0943 18.8659 19.4078 18.6272 19.639C18.3885 19.8701 18.0648 20 17.7273 20H6.27272C5.93518 20 5.61145 19.8701 5.37277 19.639C5.13409 19.4078 5 19.0943 5 18.7675V5.20944C5.00625 4.88657 5.1431 4.57897 5.38111 4.3528C5.61911 4.12662 5.93927 3.99994 6.27272 4H14.092L14.1477 4.02311H14.1557L14.1954 4.04622H14.2113L14.2511 4.06933C14.2511 4.07409 14.2542 4.07591 14.2584 4.07842C14.261 4.07998 14.264 4.0818 14.267 4.08474L14.2909 4.10014L14.3148 4.11555L14.3386 4.13866L14.3625 4.15407ZM13.9091 5.46365V8.90708H17.4648L13.9091 5.46365ZM8.18407 12.0783C8.30679 12.1982 8.46254 12.2581 8.65133 12.2581H15.3487C15.5375 12.2581 15.6932 12.1982 15.8159 12.0783C15.9386 11.9585 16 11.8111 16 11.6359C16 11.4608 15.9386 11.311 15.8159 11.1864C15.6932 11.0621 15.5375 11 15.3487 11H8.65133C8.46254 11 8.30679 11.0621 8.18407 11.1864C8.06136 11.311 8 11.4608 8 11.6359C8 11.8111 8.06136 11.9585 8.18407 12.0783ZM8.18407 14.449C8.30679 14.5736 8.46254 14.6359 8.65133 14.6359H15.3487C15.5375 14.6359 15.6932 14.5736 15.8159 14.449C15.9386 14.3248 16 14.1751 16 14C16 13.8249 15.9386 13.6752 15.8159 13.551C15.6932 13.4264 15.5375 13.3641 15.3487 13.3641H8.65133C8.46254 13.3641 8.30679 13.4264 8.18407 13.551C8.06136 13.6752 8 13.8249 8 14C8 14.1751 8.06136 14.3248 8.18407 14.449ZM8.18407 16.8131C8.30679 16.9377 8.46254 17 8.65133 17H15.3487C15.5375 17 15.6932 16.9377 15.8159 16.8131C15.9386 16.6888 16 16.5392 16 16.3641C16 16.1889 15.9386 16.0415 15.8159 15.9217C15.6932 15.8018 15.5375 15.7419 15.3487 15.7419H8.65133C8.46254 15.7419 8.30679 15.8018 8.18407 15.9217C8.06136 16.0415 8 16.1889 8 16.3641C8 16.5392 8.06136 16.6888 8.18407 16.8131Z" fill="white"/>
</g>
<defs>
<filter id="filter0_d_105_5504" x="-4" y="0" width="32" height="32" filterUnits="userSpaceOnUse" color-interpolation-filters="sRGB">
<feFlood flood-opacity="0" result="BackgroundImageFix"/>
<feColorMatrix in="SourceAlpha" type="matrix" values="0 0 0 0 0 0 0 0 0 0 0 0 0 0 0 0 0 0 127 0" result="hardAlpha"/>
<feOffset dy="4"/>
<feGaussianBlur stdDeviation="2"/>
<feComposite in2="hardAlpha" operator="out"/>
<feColorMatrix type="matrix" values="0 0 0 0 0 0 0 0 0 0 0 0 0 0 0 0 0 0 0.25 0"/>
<feBlend mode="normal" in2="BackgroundImageFix" result="effect1_dropShadow_105_5504"/>
<feBlend mode="normal" in="SourceGraphic" in2="effect1_dropShadow_105_5504" result="shape"/>
</filter>
</defs>
</svg>
