<svg width="24" height="24" viewBox="0 0 24 24" fill="none" xmlns="http://www.w3.org/2000/svg">
<g id="Icons / Sort / down">
<g id="Vector">
<path d="M16.229 4C16.7115 4 17.1026 4.41578 17.1026 4.92866V16.0855L18.4594 14.4446C18.7829 14.0534 19.3447 14.0189 19.7084 14.3679C20.0652 14.7104 20.097 15.2941 19.7796 15.678L17.013 19.0239C16.6607 19.45 16.0405 19.4631 15.6726 19.0523L12.6526 15.681C12.3209 15.3107 12.3307 14.7258 12.6746 14.3683C13.025 14.004 13.5881 14.0146 13.9261 14.392L15.3554 15.9875V4.92866C15.3554 4.41578 15.7465 4 16.229 4Z" fill="#0064CC"/>
<path d="M4.8837 18.1176C4.3947 18.1176 3.99829 18.539 3.99829 19.0588C3.99829 19.5786 4.3947 20 4.8837 20H11.8491C12.3381 20 12.7345 19.5786 12.7345 19.0588C12.7345 18.539 12.3381 18.1176 11.8491 18.1176H4.8837Z" fill="#0064CC"/>
<path d="M3.9983 14.3528C3.9983 13.833 4.39471 13.4117 4.88371 13.4117H9.22826C9.71725 13.4117 10.1137 13.833 10.1137 14.3528C10.1137 14.8726 9.71725 15.294 9.22826 15.294H4.8837C4.39471 15.294 3.9983 14.8726 3.9983 14.3528Z" fill="#0064CC"/>
<path d="M4.8837 8.70569C4.3947 8.70569 3.99829 9.12708 3.99829 9.64688C3.99829 10.1667 4.3947 10.5881 4.8837 10.5881H6.60738C7.09637 10.5881 7.49278 10.1667 7.49278 9.64688C7.49278 9.12708 7.09637 8.70569 6.60738 8.70569H4.8837Z" fill="#0064CC"/>
<path d="M3.99886 4.92836C3.99886 4.41564 4.38987 4 4.8722 4C5.35454 4 5.74555 4.41564 5.74555 4.92836V4.9534C5.74555 5.46612 5.35454 5.88177 4.8722 5.88177C4.38987 5.88177 3.99886 5.46612 3.99886 4.9534V4.92836Z" fill="#0064CC"/>
</g>
</g>
</svg>
